<?xml version="1.0" encoding="iso-8859-1"?>
<!-- Generator: Adobe Illustrator 19.0.0, SVG Export Plug-In . SVG Version: 6.00 Build 0)  -->
<svg version="1.1" id="Layer_1" xmlns="http://www.w3.org/2000/svg" xmlns:xlink="http://www.w3.org/1999/xlink" x="0px" y="0px"
	 viewBox="0 0 512 512" style="enable-background:new 0 0 512 512;" xml:space="preserve">
<g transform="translate(1 1)">
	<path style="fill:#FFE100;" d="M502.467,255c0,136.533-110.933,247.467-247.467,247.467S7.533,391.533,7.533,255
		S118.467,7.533,255,7.533S502.467,118.467,502.467,255"/>
	<path style="fill:#FFA800;" d="M255,7.533c-4.267,0-8.533,0-12.8,0C372.76,14.36,476.867,122.733,476.867,255
		S372.76,495.64,242.2,502.467c4.267,0,8.533,0,12.8,0c136.533,0,247.467-110.933,247.467-247.467S391.533,7.533,255,7.533"/>
	<path style="fill:#FFFFFF;" d="M255,7.533c4.267,0,8.533,0,12.8,0C137.24,14.36,33.133,122.733,33.133,255
		S137.24,495.64,267.8,502.467c-4.267,0-8.533,0-12.8,0C118.467,502.467,7.533,391.533,7.533,255S118.467,7.533,255,7.533"/>
	<g>
		<path style="fill:#63D3FD;" d="M85.187,271.213L85.187,271.213c-15.36,0.853-26.453-10.24-25.6-25.6s13.653-28.16,32.427-32.427
			L127,203.8l-9.387,34.987C111.64,258.413,100.547,269.507,85.187,271.213"/>
		<path style="fill:#63D3FD;" d="M425.667,271.213L425.667,271.213c15.36,0.853,26.453-10.24,25.6-25.6s-13.653-28.16-32.427-32.427
			l-34.987-9.387l9.387,34.987C399.213,258.413,410.307,269.507,425.667,271.213"/>
		<path style="fill:#63D3FD;" d="M212.333,152.6c0,23.893-18.773,42.667-42.667,42.667S127,176.493,127,152.6
			s18.773-42.667,42.667-42.667S212.333,128.707,212.333,152.6"/>
		<path style="fill:#63D3FD;" d="M383,152.6c0,23.893-18.773,42.667-42.667,42.667c-23.893,0-42.667-18.773-42.667-42.667
			s18.773-42.667,42.667-42.667C364.227,109.933,383,128.707,383,152.6"/>
	</g>
	<path d="M255,511C114.2,511-1,395.8-1,255S114.2-1,255-1s256,115.2,256,256S395.8,511,255,511z M255,16.067
		C123.587,16.067,16.067,123.587,16.067,255S123.587,493.933,255,493.933S493.933,386.413,493.933,255S386.413,16.067,255,16.067z"
		/>
	<path d="M83.48,279.747c-9.387,0-17.92-3.413-23.893-10.24s-9.387-15.36-8.533-24.747c1.707-18.773,16.213-34.987,38.4-40.107
		l34.987-9.387c2.56-0.853,5.973,0,8.533,2.56s3.413,5.12,2.56,8.533l-9.387,34.987c-9.387,29.867-26.453,37.547-40.107,38.4
		C85.187,279.747,84.333,279.747,83.48,279.747z M115.053,215.747l-20.48,5.12c-15.36,3.413-24.747,12.8-25.6,24.747
		c0,4.267,0.853,8.533,4.267,11.947c3.413,3.413,7.68,5.12,12.8,4.267c11.093-0.853,19.627-9.387,24.747-26.453L115.053,215.747z"/>
	<path d="M427.373,279.747L427.373,279.747c-0.853,0-1.707,0-2.56,0c-12.8-0.853-30.72-8.533-40.107-38.4l-9.387-34.987
		c-0.853-2.56,0-5.973,2.56-8.533s5.12-3.413,8.533-2.56l34.987,9.387c22.187,5.12,37.547,20.48,38.4,40.107
		c0.853,9.387-2.56,17.92-8.533,24.747C445.293,275.48,436.76,279.747,427.373,279.747z M395.8,215.747l5.12,20.48
		c5.12,16.213,12.8,24.747,24.747,25.6c0.853,0,0.853,0,1.707,0l0,0c4.267,0,8.533-1.707,11.093-4.267
		c2.56-3.413,4.267-7.68,4.267-11.947c-0.853-11.093-11.093-21.333-25.6-24.747L395.8,215.747z"/>
	<path d="M178.2,152.6c0,5.12-3.413,8.533-8.533,8.533c-5.12,0-8.533-3.413-8.533-8.533c0-5.12,3.413-8.533,8.533-8.533
		S178.2,147.48,178.2,152.6"/>
	<path d="M169.667,203.8c-28.16,0-51.2-23.04-51.2-51.2s23.04-51.2,51.2-51.2s51.2,23.04,51.2,51.2S197.827,203.8,169.667,203.8z
		 M169.667,118.467c-18.773,0-34.133,15.36-34.133,34.133s15.36,34.133,34.133,34.133S203.8,171.373,203.8,152.6
		S188.44,118.467,169.667,118.467z"/>
	<path d="M348.867,152.6c0,5.12-3.413,8.533-8.533,8.533s-8.533-3.413-8.533-8.533c0-5.12,3.413-8.533,8.533-8.533
		C345.453,144.067,348.867,147.48,348.867,152.6"/>
	<path d="M340.333,203.8c-28.16,0-51.2-23.04-51.2-51.2s23.04-51.2,51.2-51.2s51.2,23.04,51.2,51.2S368.493,203.8,340.333,203.8z
		 M340.333,118.467c-18.773,0-34.133,15.36-34.133,34.133s15.36,34.133,34.133,34.133s34.133-15.36,34.133-34.133
		S359.107,118.467,340.333,118.467z"/>
	<path d="M127,391.533c-1.707,0-3.413-0.853-5.12-1.707c-4.267-2.56-5.12-7.68-2.56-11.947c30.72-44.373,82.773-71.68,135.68-71.68
		s104.96,27.307,134.827,71.68c2.56,4.267,1.707,9.387-2.56,11.947s-9.387,1.707-11.947-2.56c-26.453-39.253-72.533-64-120.32-64
		s-93.867,24.747-121.173,64.853C132.12,389.827,129.56,391.533,127,391.533z"/>
	<path d="M310.467,101.4c-1.707,0-2.56,0-4.267-0.853c-4.267-2.56-5.12-7.68-3.413-11.947c8.533-12.8,22.187-21.333,37.547-21.333
		S369.347,75.8,377.027,88.6c2.56,4.267,0.853,9.387-3.413,11.947c-4.267,2.56-9.387,0.853-11.947-3.413
		c-3.413-7.68-11.947-12.8-21.333-12.8s-17.92,5.12-22.187,12.8C316.44,99.693,313.88,101.4,310.467,101.4z"/>
	<path d="M139.8,101.4c-1.707,0-2.56,0-4.267-0.853c-4.267-2.56-5.12-7.68-3.413-11.947c8.533-12.8,22.187-21.333,37.547-21.333
		S198.68,75.8,206.36,88.6c2.56,4.267,0.853,9.387-3.413,11.947c-4.267,2.56-9.387,0.853-11.947-3.413
		c-3.413-7.68-11.947-12.8-21.333-12.8s-17.92,5.12-22.187,12.8C145.773,99.693,143.213,101.4,139.8,101.4z"/>
</g>
<g>
</g>
<g>
</g>
<g>
</g>
<g>
</g>
<g>
</g>
<g>
</g>
<g>
</g>
<g>
</g>
<g>
</g>
<g>
</g>
<g>
</g>
<g>
</g>
<g>
</g>
<g>
</g>
<g>
</g>
</svg>
